<svg xmlns="http://www.w3.org/2000/svg" width="600" height="400" viewBox="0 0 600 400"><rect width="100%" height="100%" fill="#DDDDDD"/><path fill="#999999" d="M123.645 183.655v26.75h-4.99v-26.75zm9.82 26.75h-4.57v-18.98h2.8q.89 0 1.16.83l.3 1.41q.5-.56 1.04-1.02.55-.46 1.17-.8.62-.33 1.33-.52.71-.2 1.57-.2 1.79 0 2.95.97 1.15.98 1.73 2.59.44-.95 1.11-1.62.66-.68 1.46-1.1.79-.43 1.69-.63.9-.21 1.8-.21 1.58 0 2.8.48 1.22.49 2.05 1.41.83.93 1.27 2.26.43 1.33.43 3.05v12.08h-4.57v-12.08q0-1.81-.79-2.73-.8-.91-2.33-.91-.71 0-1.31.24t-1.05.69-.71 1.14q-.26.68-.26 1.57v12.08h-4.59v-12.08q0-1.91-.77-2.78-.77-.86-2.25-.86-1 0-1.86.49t-1.6 1.34zm36.45-4.9v-3.2q-1.98.09-3.33.34t-2.17.64q-.81.39-1.16.9-.35.52-.35 1.13 0 1.21.71 1.72.71.52 1.86.52 1.41 0 2.43-.51 1.03-.51 2.01-1.54m-9.66-9.97-.81-1.47q3.27-2.99 7.88-2.99 1.66 0 2.98.54 1.31.55 2.22 1.52.9.97 1.38 2.32.47 1.35.47 2.96v11.99h-2.07q-.65 0-1-.19-.35-.2-.56-.79l-.41-1.37q-.72.65-1.4 1.14-.69.49-1.43.82t-1.58.51-1.86.18q-1.2 0-2.22-.33-1.01-.32-1.75-.97t-1.15-1.61-.41-2.24q0-.72.24-1.43t.79-1.36q.54-.65 1.41-1.22t2.14-1 2.95-.69q1.68-.27 3.85-.33v-1.11q0-1.9-.81-2.82-.82-.91-2.35-.91-1.11 0-1.85.25-.73.26-1.28.59-.56.32-1.01.58t-1.01.26q-.48 0-.81-.25t-.54-.58m25.35 4.92q.85 0 1.48-.23.63-.24 1.04-.64.42-.41.63-.98.21-.58.21-1.26 0-1.41-.84-2.23t-2.52-.82q-1.69 0-2.53.82t-.84 2.23q0 .67.21 1.24.22.57.63.99.42.41 1.06.65.63.23 1.47.23m5.16 10.8q0-.55-.33-.91-.34-.35-.91-.54-.57-.2-1.34-.29t-1.63-.14q-.86-.04-1.78-.08-.91-.04-1.78-.15-.76.43-1.23 1t-.47 1.33q0 .5.25.94.25.43.79.75.55.31 1.42.49.87.17 2.12.17 1.28 0 2.21-.19.92-.2 1.52-.54t.88-.81.28-1.03m-.91-19.18h5.46v1.7q0 .81-.98 1l-1.7.31q.39.98.39 2.15 0 1.4-.57 2.54-.56 1.14-1.56 1.93-1 .8-2.36 1.24-1.36.43-2.93.43-.56 0-1.08-.06-.51-.05-1.01-.14-.89.53-.89 1.2 0 .57.53.84.52.27 1.39.38t1.98.14 2.28.12q1.16.09 2.27.32t1.98.73 1.4 1.36.53 2.21q0 1.26-.62 2.45-.62 1.18-1.8 2.11-1.17.92-2.88 1.48-1.71.57-3.9.57-2.14 0-3.73-.42-1.6-.41-2.65-1.11-1.05-.69-1.57-1.6-.52-.9-.52-1.89 0-1.33.8-2.22.81-.9 2.21-1.44-.75-.39-1.2-1.03-.44-.65-.44-1.71 0-.42.16-.87.15-.46.46-.9.3-.45.77-.84.46-.4 1.09-.72-1.45-.77-2.27-2.07-.82-1.29-.82-3.03 0-1.41.56-2.55.57-1.13 1.57-1.94 1.01-.8 2.39-1.23 1.38-.42 3.01-.42 1.22 0 2.29.25t1.96.73m11.95 6.66h8.62q0-.89-.25-1.68-.25-.78-.74-1.38-.5-.59-1.27-.93t-1.79-.34q-1.98 0-3.11 1.13-1.14 1.12-1.46 3.2m11.66 2.75h-11.75q.11 1.46.52 2.53.41 1.06 1.07 1.76.67.69 1.58 1.03.92.34 2.03.34t1.91-.25q.81-.26 1.41-.58.6-.31 1.05-.57.46-.26.88-.26.58 0 .85.42l1.32 1.67q-.76.89-1.7 1.49-.95.6-1.97.96-1.03.36-2.1.51-1.06.15-2.06.15-1.98 0-3.68-.66t-2.96-1.94q-1.26-1.29-1.98-3.18-.72-1.9-.72-4.4 0-1.94.63-3.65t1.8-2.98q1.18-1.27 2.87-2.01t3.82-.74q1.79 0 3.31.58 1.52.57 2.61 1.67t1.71 2.7.62 3.66q0 1.03-.22 1.39t-.85.36m8.45-9.23.32 1.5q.57-.57 1.21-1.06t1.35-.84q.71-.34 1.53-.53.81-.2 1.77-.2 1.56 0 2.76.53t2.01 1.48q.8.95 1.22 2.28.41 1.32.41 2.91v12.08h-4.57v-12.08q0-1.74-.79-2.69-.8-.95-2.43-.95-1.18 0-2.22.53-1.03.54-1.96 1.46v13.73h-4.57v-18.98h2.8q.89 0 1.16.83m29.86 0 .32 1.5q.57-.57 1.21-1.06t1.35-.84q.71-.34 1.52-.53.82-.2 1.78-.2 1.55 0 2.76.53 1.2.53 2 1.48.81.95 1.23 2.28.41 1.32.41 2.91v12.08h-4.57v-12.08q0-1.74-.79-2.69-.8-.95-2.43-.95-1.18 0-2.22.53-1.03.54-1.96 1.46v13.73h-4.57v-18.98h2.8q.88 0 1.16.83m25.31-1.13q2.11 0 3.84.69 1.73.68 2.96 1.94t1.89 3.07q.67 1.81.67 4.05 0 2.26-.67 4.07-.66 1.82-1.89 3.09-1.23 1.28-2.96 1.96-1.73.69-3.84.69-2.13 0-3.87-.69-1.74-.68-2.97-1.96-1.23-1.27-1.9-3.09-.68-1.81-.68-4.07 0-2.24.68-4.05.67-1.81 1.9-3.07t2.97-1.94q1.74-.69 3.87-.69m0 16.04q2.37 0 3.51-1.59 1.13-1.59 1.13-4.66t-1.13-4.68q-1.14-1.61-3.51-1.61-2.41 0-3.56 1.62-1.16 1.62-1.16 4.67t1.16 4.65q1.15 1.6 3.56 1.6m25.46-8.43h8.62q0-.89-.25-1.68-.25-.78-.75-1.38-.5-.59-1.27-.93t-1.78-.34q-1.98 0-3.12 1.13-1.14 1.12-1.45 3.2m11.65 2.75h-11.75q.11 1.46.52 2.53.41 1.06 1.07 1.76.67.69 1.59 1.03.91.34 2.02.34t1.92-.25q.8-.26 1.4-.58.6-.31 1.06-.57.45-.26.88-.26.57 0 .85.42l1.31 1.67q-.76.89-1.7 1.49-.95.6-1.97.96-1.03.36-2.09.51-1.07.15-2.07.15-1.97 0-3.68-.66-1.7-.66-2.96-1.94-1.25-1.29-1.98-3.18-.72-1.9-.72-4.4 0-1.94.63-3.65t1.8-2.98q1.18-1.27 2.87-2.01 1.7-.74 3.82-.74 1.8 0 3.31.58 1.52.57 2.61 1.67t1.71 2.7.62 3.66q0 1.03-.22 1.39t-.85.36m8.46-9.23.31 1.5q.57-.57 1.21-1.06t1.35-.84q.71-.34 1.53-.53.81-.2 1.77-.2 1.56 0 2.76.53t2.01 1.48q.8.95 1.22 2.28.42 1.32.42 2.91v12.08h-4.57v-12.08q0-1.74-.8-2.69t-2.42-.95q-1.19 0-2.22.53-1.04.54-1.96 1.46v13.73h-4.57v-18.98h2.79q.89 0 1.17.83m31.7 1.52-1.2 1.66q-.2.26-.4.41-.19.15-.56.15-.35 0-.69-.21-.33-.22-.79-.49-.46-.26-1.1-.48-.64-.21-1.58-.21-1.21 0-2.11.44-.91.43-1.51 1.24-.6.82-.9 1.97-.29 1.16-.29 2.62 0 1.52.32 2.7.32 1.19.93 1.99.62.81 1.49 1.22.86.42 1.96.42 1.09 0 1.76-.27.68-.27 1.14-.59t.81-.59q.34-.27.76-.27.56 0 .84.42l1.31 1.67q-.76.89-1.65 1.49t-1.84.96-1.96.51-2.01.15q-1.75 0-3.31-.66-1.55-.66-2.72-1.91-1.16-1.26-1.84-3.08-.67-1.83-.67-4.16 0-2.09.6-3.87.6-1.79 1.76-3.09 1.17-1.31 2.89-2.05t3.96-.74q2.13 0 3.73.69 1.6.68 2.87 1.96m11.44-2.65q2.11 0 3.84.69 1.73.68 2.96 1.94t1.89 3.07q.67 1.81.67 4.05 0 2.26-.67 4.07-.66 1.82-1.89 3.09-1.23 1.28-2.96 1.96-1.73.69-3.84.69-2.13 0-3.87-.69-1.74-.68-2.97-1.96-1.23-1.27-1.9-3.09-.68-1.81-.68-4.07 0-2.24.68-4.05.67-1.81 1.9-3.07t2.97-1.94q1.74-.69 3.87-.69m0 16.04q2.37 0 3.5-1.59 1.14-1.59 1.14-4.66t-1.14-4.68q-1.13-1.61-3.5-1.61-2.41 0-3.56 1.62-1.16 1.62-1.16 4.67t1.16 4.65q1.15 1.6 3.56 1.6m16.81-14.91.32 1.5q.57-.57 1.21-1.06t1.35-.84q.71-.34 1.53-.53.81-.2 1.77-.2 1.56 0 2.76.53t2.01 1.48q.8.95 1.22 2.28.41 1.32.41 2.91v12.08h-4.57v-12.08q0-1.74-.79-2.69-.8-.95-2.42-.95-1.19 0-2.22.53-1.04.54-1.97 1.46v13.73h-4.57v-18.98h2.8q.89 0 1.16.83m23.24 18.45q-2.48 0-3.8-1.4t-1.32-3.86v-10.6h-1.95q-.37 0-.63-.24t-.26-.72v-1.81l3.06-.5.96-5.18q.09-.37.35-.58.26-.2.67-.2h2.36v5.98h5.07v3.25h-5.07v10.29q0 .89.44 1.39.43.49 1.19.49.43 0 .71-.1.29-.1.5-.21.22-.11.38-.21.17-.1.34-.1.2 0 .33.1t.28.3l1.37 2.22q-1 .84-2.3 1.26-1.29.43-2.68.43m11.47-18.13.28 2.14q.88-1.7 2.11-2.67 1.22-.97 2.88-.97 1.32 0 2.11.57l-.29 3.42q-.1.34-.27.48-.18.13-.48.13-.27 0-.82-.09-.54-.09-1.06-.09-.76 0-1.35.22t-1.07.64q-.47.42-.83 1.01t-.67 1.35v11.69h-4.57v-18.98h2.68q.7 0 .98.25t.37.9m19.79 12.93v-3.2q-1.98.09-3.33.34t-2.16.64-1.17.9q-.35.52-.35 1.13 0 1.21.72 1.72.71.52 1.85.52 1.41 0 2.44-.51 1.02-.51 2-1.54m-9.65-9.97-.82-1.47q3.28-2.99 7.88-2.99 1.67 0 2.98.54 1.32.55 2.22 1.52.91.97 1.38 2.32t.47 2.96v11.99h-2.07q-.65 0-1-.19-.35-.2-.55-.79l-.41-1.37q-.72.65-1.41 1.14-.68.49-1.42.82t-1.58.51-1.86.18q-1.2 0-2.22-.33-1.02-.32-1.76-.97t-1.15-1.61q-.4-.96-.4-2.24 0-.72.24-1.43t.78-1.36q.55-.65 1.42-1.22t2.14-1q1.26-.43 2.95-.69 1.68-.27 3.84-.33v-1.11q0-1.9-.81-2.82-.81-.91-2.35-.91-1.11 0-1.84.25-.73.26-1.29.59l-1 .58q-.46.26-1.01.26-.48 0-.82-.25-.33-.25-.53-.58m30.32 9.25v-8.51q-.78-.95-1.69-1.34-.92-.38-1.97-.38-1.04 0-1.87.38-.84.39-1.43 1.18t-.9 2q-.32 1.21-.32 2.86 0 1.66.27 2.82.27 1.15.77 1.88t1.22 1.06q.72.32 1.61.32 1.42 0 2.42-.59t1.89-1.68m0-21.87h4.57v27.49h-2.79q-.91 0-1.15-.83l-.39-1.83q-1.15 1.31-2.64 2.12-1.49.82-3.47.82-1.55 0-2.84-.65-1.3-.65-2.23-1.88-.94-1.23-1.45-3.04t-.51-4.14q0-2.11.58-3.93.57-1.81 1.64-3.14 1.08-1.33 2.58-2.08 1.49-.75 3.36-.75 1.59 0 2.72.5t2.02 1.35zm19.11 22.59v-3.2q-1.98.09-3.33.34t-2.16.64q-.82.39-1.17.9-.35.52-.35 1.13 0 1.21.71 1.72.71.52 1.86.52 1.41 0 2.43-.51 1.03-.51 2.01-1.54m-9.66-9.97-.81-1.47q3.27-2.99 7.88-2.99 1.66 0 2.98.54 1.31.55 2.22 1.52.9.97 1.38 2.32.47 1.35.47 2.96v11.99h-2.07q-.65 0-1-.19-.35-.2-.56-.79l-.41-1.37q-.72.65-1.4 1.14-.69.49-1.43.82t-1.58.51-1.86.18q-1.2 0-2.22-.33-1.01-.32-1.75-.97t-1.15-1.61-.41-2.24q0-.72.24-1.43t.79-1.36q.54-.65 1.41-1.22t2.14-1 2.95-.69q1.68-.27 3.85-.33v-1.11q0-1.9-.81-2.82-.82-.91-2.35-.91-1.11 0-1.84.25-.74.26-1.29.59-.56.32-1.01.58t-1.01.26q-.48 0-.81-.25t-.54-.58"/></svg>